# xmcd
#
# Track frame offsets:
#	150
#	14415
#	29615
#	44002
#	60125
#	73430
#	87355
#	99172
#	117413
#	129163
#	143260
#	160503
#
# Disc length: 2299 seconds
#
# Revision: 0
# Processed by: cddbd v1.5.2PL0 Copyright (c) Steve Scherf et al.
# Submitted via: audiograbber 1.83.01
#
DISCID=9608f90c
DTITLE=Ella Fitzgerald - Song In A Mellow Mood
DYEAR=1954
DGENRE=Jazz
TTITLE0=I'm Glad There Is You(In This World Of Ordinary People)
TTITLE1=What Is There To Say
TTITLE2=People Will Say We're In Love
TTITLE3=Please Be Kind
TTITLE4=Until The Real Thing Comes Along
TTITLE5=Makin' Whoopee
TTITLE6=Imagination
TTITLE7=Stardust
TTITLE8=My Heart Belongs To Daddy
TTITLE9=You Leave Me Breathless
TTITLE10=Baby, What Else Can I Do
TTITLE11=Nice Work If You Can Get It
EXTD=
EXTT0=
EXTT1=
EXTT2=
EXTT3=
EXTT4=
EXTT5=
EXTT6=
EXTT7=
EXTT8=
EXTT9=
EXTT10=
EXTT11=
PLAYORDER=
